<?xml version="1.0" standalone="no"?>
<!DOCTYPE svg PUBLIC "-//W3C//DTD SVG 20010904//EN"
 "http://www.w3.org/TR/2001/REC-SVG-20010904/DTD/svg10.dtd">
<svg version="1.0" xmlns="http://www.w3.org/2000/svg"
 width="512.000000pt" height="512.000000pt" viewBox="0 0 512.000000 512.000000"
 preserveAspectRatio="xMidYMid meet">
<metadata>
Created by potrace 1.14, written by Peter Selinger 2001-2017
</metadata>
<g transform="translate(0.000000,512.000000) scale(0.100000,-0.100000)"
fill="#000000" stroke="none">
<path d="M2337 5113 c-3 -2 -29 -6 -58 -8 -30 -2 -74 -7 -99 -10 -25 -4 -61
-8 -80 -10 -19 -2 -35 -4 -35 -5 0 -2 -19 -6 -65 -14 -19 -4 -43 -9 -53 -12
-11 -3 -29 -7 -40 -9 -61 -10 -345 -100 -357 -114 -3 -3 -12 -7 -20 -9 -41 -9
-291 -147 -298 -164 -2 -4 -9 -8 -16 -8 -7 0 -23 -11 -36 -25 -13 -14 -28 -25
-35 -25 -6 0 -17 -9 -25 -20 -8 -11 -18 -20 -22 -20 -12 0 -155 -145 -209
-210 -62 -76 -138 -199 -187 -300 -40 -86 -97 -244 -108 -303 -8 -44 -12 -62
-14 -62 -3 0 -9 -38 -15 -89 -3 -27 -8 -52 -9 -55 -8 -12 -19 -191 -19 -301 0
-104 8 -247 18 -325 9 -73 18 -182 17 -202 -1 -13 2 -23 6 -23 4 0 7 -19 8
-43 1 -53 12 -156 18 -165 3 -6 18 -128 19 -159 0 -7 3 -13 6 -13 3 0 5 -15 5
-32 -1 -18 2 -37 6 -43 4 -5 7 -17 7 -25 0 -8 8 -60 18 -115 10 -55 19 -109
21 -120 1 -11 6 -38 10 -60 24 -125 2 -181 -115 -302 -82 -85 -120 -152 -115
-204 3 -35 38 -107 59 -121 5 -4 7 -8 2 -8 -4 0 -1 -10 7 -23 21 -33 38 -104
41 -172 2 -33 4 -62 5 -65 1 -3 2 -9 1 -13 -1 -4 8 -27 18 -51 30 -64 93 -109
252 -179 35 -16 82 -37 104 -47 95 -43 135 -60 140 -60 12 0 180 -85 183 -92
2 -4 8 -8 13 -8 10 0 54 -36 78 -63 52 -60 62 -75 73 -105 7 -17 15 -32 18
-32 4 0 7 -6 8 -12 0 -7 3 -24 7 -38 9 -33 14 -64 20 -130 7 -81 12 -94 40
-123 30 -30 143 -89 155 -82 5 3 11 1 14 -4 3 -4 25 -12 48 -16 24 -4 48 -9
53 -10 9 -2 44 -9 115 -21 27 -4 83 -10 205 -21 185 -17 860 -8 1010 13 22 3
54 7 71 8 16 1 34 5 40 8 5 3 21 5 37 4 15 -1 27 1 27 4 0 3 28 12 63 19 140
29 246 105 248 179 4 200 69 329 214 427 18 13 35 21 38 19 2 -3 10 2 17 11 7
8 17 15 22 15 5 0 37 13 71 30 88 42 203 90 216 90 6 0 11 4 11 10 0 5 4 9 8
7 10 -3 115 45 123 56 3 5 9 8 13 8 11 -2 70 31 107 60 37 29 70 84 76 129 2
14 6 54 9 90 7 83 19 122 58 190 46 82 54 103 50 143 -4 47 -36 97 -120 186
-91 96 -121 148 -118 203 3 61 15 161 19 168 2 3 11 48 20 100 9 52 18 106 21
120 3 14 7 41 9 60 2 19 4 35 5 35 3 0 9 37 15 90 3 28 8 68 12 90 8 52 11 71
16 125 3 25 8 67 11 94 4 28 9 73 11 100 2 28 6 74 9 101 21 218 27 442 13
462 -4 6 -3 14 3 18 6 3 8 10 5 15 -3 5 -8 28 -10 52 -3 24 -8 61 -11 84 -2
22 -7 60 -10 84 -3 25 -8 47 -12 50 -4 3 -8 14 -8 25 -4 57 -92 333 -114 355
-3 3 -16 28 -29 55 -29 58 -129 211 -169 258 -79 91 -187 192 -282 263 -82 61
-306 188 -352 200 -5 1 -10 3 -13 4 -3 1 -8 3 -12 5 -8 2 -55 20 -83 32 -8 3
-17 7 -20 8 -3 1 -45 14 -95 30 -49 16 -97 30 -105 31 -8 2 -46 10 -85 20 -38
9 -80 16 -92 15 -13 0 -23 3 -23 7 0 4 -10 7 -22 8 -44 1 -153 14 -178 20 -30
7 -516 14 -523 7z m-707 -2293 c0 -3 17 -5 38 -6 34 -1 117 -11 117 -14 0 -1
11 -4 25 -6 39 -7 141 -45 180 -66 121 -68 190 -151 230 -280 20 -64 11 -310
-11 -324 -5 -3 -7 -9 -4 -14 11 -18 -56 -171 -109 -245 -41 -58 -161 -155
-193 -155 -7 0 -13 -5 -13 -12 0 -6 -3 -9 -6 -6 -3 4 -20 0 -37 -7 -50 -21
-102 -27 -243 -30 -72 -1 -136 -5 -143 -9 -6 -4 -11 -4 -11 1 0 4 -42 8 -93 8
-130 0 -219 26 -274 80 -30 29 -66 112 -60 136 3 10 1 19 -4 19 -9 0 -5 207 6
285 4 22 8 54 10 70 2 17 4 31 4 33 1 1 1 4 2 7 0 2 7 28 15 57 8 29 17 64 20
77 3 14 8 29 12 35 4 6 7 13 7 16 1 3 9 22 18 44 9 21 17 40 17 42 0 2 16 29
35 59 31 47 89 112 137 151 21 17 128 55 138 49 5 -3 11 -1 14 3 6 9 176 11
176 2z m1939 -4 c9 -6 12 -5 7 2 -5 8 10 11 49 9 30 -1 55 -6 55 -10 0 -5 5
-5 10 -2 19 12 134 -51 182 -99 40 -38 99 -117 103 -136 1 -3 15 -34 32 -70
16 -36 35 -87 42 -115 7 -27 15 -57 18 -65 3 -8 7 -24 9 -35 1 -11 6 -38 9
-60 4 -22 8 -61 9 -87 0 -27 4 -48 7 -48 8 0 3 -217 -5 -254 -19 -82 -89 -155
-163 -172 -66 -14 -114 -21 -138 -18 -14 1 -25 -3 -25 -9 0 -8 -3 -8 -8 -2 -4
6 -34 10 -67 10 -33 0 -63 -4 -67 -10 -5 -7 -8 -7 -8 0 0 6 -50 10 -128 11
-146 1 -231 21 -325 78 -52 32 -141 117 -161 154 -5 10 -16 28 -24 42 -9 14
-17 27 -17 30 -1 3 -9 23 -19 45 -20 46 -23 55 -42 150 -18 87 -20 235 -4 295
7 24 22 65 35 90 25 48 106 140 124 140 6 0 11 5 11 10 0 6 6 10 14 10 8 0 16
4 18 8 9 23 188 88 263 96 11 1 25 4 30 7 6 4 25 5 43 3 17 -1 32 1 32 4 0 10
82 8 99 -2z m-942 -935 c48 -50 113 -142 113 -161 0 -5 5 -10 11 -10 5 0 7 -4
4 -10 -3 -5 -2 -10 3 -10 14 0 188 -355 207 -421 16 -57 14 -104 -4 -122 -14
-14 -101 -26 -101 -14 0 5 -6 4 -14 -2 -8 -7 -17 -8 -20 -3 -3 5 -21 8 -41 7
-19 0 -35 2 -35 5 0 3 -16 7 -36 8 -37 3 -107 33 -132 58 -18 19 -24 18 -58
-11 -38 -33 -80 -45 -214 -61 -92 -11 -118 -9 -144 11 -40 30 -21 131 53 283
17 34 31 67 31 72 0 6 5 10 10 10 6 0 10 5 10 11 0 14 87 170 144 259 49 77
120 150 147 150 10 0 40 -22 66 -49z"/>
</g>
</svg>
